# xmcd
#
# Track frame offsets: 
#        150
#        13157
#        27687
#        41207
#        54122
#        68475
#        83045
#        98620
#        112920
#        126517
#        142317
#        155912
#        171007
#
# Disc length: 2480 seconds
#
# Revision: 3
# Processed by: cddbd v1.5.2PL0 Copyright (c) Steve Scherf et al.
# Submitted via: ExactAudioCopy v0.95b3
#
DISCID=b209ae0d
DTITLE=Control - Todo Bajo Control
DYEAR=2002
DGENRE=cumbia
TTITLE0=Zapatitos
TTITLE1=Dame Un Beso
TTITLE2=Te Pone A Bailar
TTITLE3=Carita De Angel
TTITLE4=Baila,Baila
TTITLE5=¡Ay Amor!
TTITLE6=No Que No
TTITLE7=Baila Cumbia
TTITLE8=Cabellos Largos
TTITLE9=El Mejoral
TTITLE10=¿Donde Estas?
TTITLE11=Soñando
TTITLE12=Dile A Mi Corazon
EXTD=
EXTT0=
EXTT1=
EXTT2=
EXTT3=
EXTT4=
EXTT5=
EXTT6=
EXTT7=
EXTT8=
EXTT9=
EXTT10=
EXTT11=
EXTT12=
PLAYORDER=
